{"title":"Katy Perry - Part Of Me [Music Video] 1080p [Sbyky]","uid":9091020,"size":108073267,"categoryP":"video","categoryS":"music_videos","magnet":"?xt=urn:btih:88a765efe807a981b243aaa8401712d698564bdb&amp;dn=Katy+Perry+-+Part+Of+Me+%5BMusic+Video%5D+1080p+%5BSbyky%5D&amp;tr=udp%3A%2F%2Ftracker.openbittorrent.com%3A80&amp;tr=udp%3A%2F%2Fopen.demonii.com%3A1337&amp;tr=udp%3A%2F%2Ftracker.coppersurfer.tk%3A6969&amp;tr=udp%3A%2F%2Fexodus.desync.com%3A6969","seeders":7,"leechers":0,"uploader":"Sbyky","files":1,"time":1382595820,"description":"[IMG]http://cdn.piczend.com/images/rgohJ9SF/1382569250_partofme.jpg[/IMG]\n\nGeneral\nComplete name                            : Katy Perry - Part Of Me [Music Video] 1080p [Sbyky].MP4\nFormat                                   : MPEG-4\nFormat profile                           : Base Media / Version 2\nCodec ID                                 : mp42\nFile size                                : 103 MiB\nDuration                                 : 4mn 11s\nOverall bit rate mode                    : Variable\nOverall bit rate                         : 3 434 Kbps\nEncoded date                             : UTC 2013-09-11 07:40:55\nTagged date                              : UTC 2013-09-11 07:40:55\n\nVideo\nID                                       : 1\nFormat                                   : AVC\nFormat/Info                              : Advanced Video Codec\nFormat profile                           : &lt;a class=&quot;__cf_email__&quot; href=&quot;/cdn-cgi/l/email-protection&quot; data-cfemail=&quot;024a6b656a424e362c32&quot;&gt;[email&amp;#160;protected]&lt;/a&gt;&lt;script cf-hash='f9e31' type=&quot;text/javascript&quot;&gt;\n/* &lt;![CDATA[ */!function(){try{var t=&quot;currentScript&quot;in document?document.currentScript:function(){for(var t=document.getElementsByTagName(&quot;script&quot;),e=t.length;e--;)if(t[e].getAttribute(&quot;cf-hash&quot;))return t[e]}();if(t&amp;&amp;t.previousSibling){var e,r,n,i,c=t.previousSibling,a=c.getAttribute(&quot;data-cfemail&quot;);if(a){for(e=&quot;&quot;,r=parseInt(a.substr(0,2),16),n=2;a.length-n;n+=2)i=parseInt(a.substr(n,2),16)^r,e+=String.fromCharCode(i);e=document.createTextNode(e),c.parentNode.replaceChild(e,c)}}}catch(u){}}();/* ]]&gt; */&lt;/script&gt;\nFormat settings, CABAC                   : Yes\nFormat settings, ReFrames                : 2 frames\nCodec ID                                 : avc1\nCodec ID/Info                            : Advanced Video Coding\nDuration                                 : 4mn 11s\nSource duration                          : 4mn 11s\nBit rate                                 : 3 180 Kbps\nWidth                                    : 1 920 pixels\nHeight                                   : 1 080 pixels\nDisplay aspect ratio                     : 16:9\nFrame rate mode                          : Variable\nFrame rate                               : 23.976 fps\nMinimum frame rate                       : 23.974 fps\nMaximum frame rate                       : 3 000.000 fps\nColor space                              : YUV\nChroma subsampling                       : 4:2:0\nBit depth                                : 8 bits\nScan type                                : Progressive\nBits/(Pixel*Frame)                       : 0.064\nStream size                              : 95.4 MiB (93%)\nSource stream size                       : 95.4 MiB (93%)\nEncoded date                             : UTC 2013-09-11 07:40:55\nTagged date                              : UTC 2013-09-11 07:40:55\n\nAudio\nID                                       : 2\nFormat                                   : AAC\nFormat/Info                              : Advanced Audio Codec\nFormat profile                           : LC\nCodec ID                                 : 40\nDuration                                 : 4mn 11s\nBit rate mode                            : Variable\nBit rate                                 : 254 Kbps\nChannel(s)                               : 2 channels\nChannel positions                        : Front: L R\nSampling rate                            : 44.1 KHz\nCompression mode                         : Lossy\nStream size                              : 7.61 MiB (7%)\nEncoded date                             : UTC 2013-09-11 07:38:10\nTagged date                              : UTC 2013-09-11 07:38:10\n\nShared By Sbyky\n[IMG]http://cdn.piczend.com/images/X3Ag13N3/1379453786_saythanks.gif[/IMG]\n[IMG]http://cdn.piczend.com/images/gGqhX2S8/1379453780_keepseeding.gif[/IMG]","torrent":{"xt":"urn:btih:88a765efe807a981b243aaa8401712d698564bdb","amp;dn":"Katy+Perry+-+Part+Of+Me+%5BMusic+Video%5D+1080p+%5BSbyky%5D","amp;tr":["udp%3A%2F%2Ftracker.openbittorrent.com%3A80","udp%3A%2F%2Fopen.demonii.com%3A1337","udp%3A%2F%2Ftracker.coppersurfer.tk%3A6969","udp%3A%2F%2Fexodus.desync.com%3A6969"],"infoHash":"88a765efe807a981b243aaa8401712d698564bdb","infoHashBuffer":{"type":"Buffer","data":[136,167,101,239,232,7,169,129,178,67,170,168,64,23,18,214,152,86,75,219]},"announce":[],"urlList":[]}}